<?xml version="1.0" standalone="no"?>
<!DOCTYPE svg PUBLIC "-//W3C//DTD SVG 20010904//EN"
 "http://www.w3.org/TR/2001/REC-SVG-20010904/DTD/svg10.dtd">
<svg version="1.0" xmlns="http://www.w3.org/2000/svg"
 width="1520.000000pt" height="1460.000000pt" viewBox="0 0 1520.000000 1460.000000"
 preserveAspectRatio="xMidYMid meet">

<g transform="translate(0.000000,1460.000000) scale(0.100000,-0.100000)"
fill="#000000" stroke="none">
<path d="M15178 7513 l-3 -7088 -150 -5 c-113 -4 -153 -2 -161 7 -7 8 -13 120
-18 315 -4 167 -9 364 -11 438 -6 206 -18 656 -21 740 -1 41 -3 147 -4 235 -1
88 -6 225 -11 305 -5 80 -12 242 -15 360 -5 184 -4 217 9 228 9 8 41 11 88 10
68 -3 74 -1 77 17 2 12 -12 41 -31 65 -18 25 -42 59 -53 77 -10 18 -43 72 -73
120 -194 315 -378 677 -447 876 -17 50 -34 82 -47 89 -22 11 -123 8 -406 -12
-165 -12 -180 -18 -266 -99 -120 -114 -347 -223 -638 -307 -223 -64 -281 -74
-436 -74 l-113 0 15 -24 c9 -13 38 -47 65 -75 38 -39 51 -62 56 -94 4 -23 10
-53 13 -66 4 -14 2 -22 -5 -20 -12 5 -82 93 -172 219 -114 158 -247 336 -274
364 -14 16 -40 51 -58 80 -18 28 -37 56 -43 62 -5 7 -23 29 -40 49 -16 21 -40
47 -51 59 -37 36 -134 183 -166 252 -33 72 -40 120 -53 384 -4 74 -10 176 -13
225 l-7 90 -119 3 c-68 1 -123 -2 -130 -7 -11 -9 -12 -270 -2 -550 1 -41 -1
-45 -29 -53 -47 -14 -856 -6 -870 9 -8 8 -11 100 -11 332 1 177 1 321 1 322 0
0 -41 3 -91 5 -66 3 -94 1 -102 -8 -6 -8 -12 -125 -14 -313 -3 -213 -8 -307
-17 -323 -16 -30 -30 -20 -27 21 2 17 -2 43 -9 57 -19 39 -26 340 -14 638 5
147 12 278 15 292 3 14 4 183 3 375 -9 1146 3 3801 17 3897 8 55 22 61 111 53
62 -5 82 -3 98 9 23 17 31 5 -106 151 -98 104 -97 102 -98 310 0 99 2 209 5
245 8 111 6 128 -15 149 -13 13 -21 34 -21 56 0 19 -4 35 -9 35 -11 0 -21 -25
-21 -50 0 -10 -7 -20 -15 -24 -8 -3 -15 -16 -15 -30 0 -14 -5 -28 -11 -32 -6
-4 -8 -20 -5 -39 5 -26 3 -36 -10 -43 -14 -8 -15 -14 -5 -42 20 -58 17 -61
-46 -58 l-58 3 -3 375 c-1 206 0 385 3 398 3 12 17 27 31 32 19 8 24 16 22 37
-3 30 9 33 60 18 35 -11 27 13 -24 67 -28 31 -63 86 -93 151 -51 109 -105 171
-158 182 -16 4 -39 11 -53 16 l-24 11 23 17 c13 10 21 25 19 36 -2 13 7 21 38
32 22 7 55 26 74 42 31 25 34 33 37 92 7 107 -39 149 -161 149 -34 0 -46 4
-46 15 0 10 10 15 33 15 49 0 82 39 81 93 -1 34 -7 46 -35 69 -18 15 -42 28
-52 28 -11 0 -17 5 -14 13 5 15 83 13 103 -4 7 -6 21 -8 30 -5 15 6 15 8 -1
26 -17 18 -17 20 0 26 9 4 33 -1 53 -12 67 -33 72 -35 79 -17 4 9 -1 21 -12
29 -28 21 -11 28 24 10 51 -27 113 -14 82 17 -6 6 -11 18 -11 27 0 9 -11 27
-25 40 -20 18 -31 22 -61 17 -21 -4 -43 -2 -50 4 -21 17 -67 6 -80 -19 -15
-31 -32 -47 -40 -39 -4 4 1 16 11 27 14 16 15 22 5 35 -20 24 -48 18 -65 -15
-18 -35 -17 -35 -57 -14 l-31 16 7 116 c12 215 17 252 37 262 11 6 19 24 21
48 l3 37 117 0 c110 0 118 -1 143 -25 33 -31 59 -18 63 33 3 29 -2 39 -22 52
-23 16 -26 15 -54 -5 -29 -22 -35 -22 -164 -14 l-133 9 -6 175 c-4 131 -2 179
7 190 15 18 7 70 -13 85 -10 7 -14 51 -15 172 l-3 161 27 29 c17 18 30 49 38
86 10 52 10 60 -6 71 -11 9 -15 21 -12 40 8 40 -9 41 -33 2 -12 -20 -25 -34
-29 -31 -15 9 -31 -35 -31 -83 1 -374 -2 -458 -14 -472 -7 -8 -14 -22 -17 -30
-4 -13 -36 -15 -209 -15 l-204 0 3 -165 c4 -237 -5 -217 105 -217 107 -1 315
-22 322 -34 3 -4 0 -19 -7 -33 -10 -23 -8 -31 11 -57 21 -29 23 -38 17 -118
-15 -200 -27 -265 -52 -295 -23 -26 -26 -27 -43 -12 -25 23 -40 20 -52 -11
l-10 -26 -27 25 c-29 28 -97 44 -108 26 -4 -6 3 -20 16 -30 38 -30 14 -33 -30
-3 -41 29 -73 28 -68 -2 2 -12 -4 -17 -22 -18 -38 0 -38 -32 1 -53 17 -9 44
-27 58 -39 44 -35 73 -38 101 -9 29 32 36 32 65 4 22 -21 22 -22 4 -52 -11
-17 -19 -39 -19 -48 0 -24 57 -87 86 -94 36 -9 29 -24 -12 -24 -30 0 -45 -8
-80 -44 -39 -38 -44 -48 -44 -89 0 -53 29 -95 85 -121 20 -10 35 -24 35 -35 0
-9 7 -26 15 -37 26 -34 20 -41 -67 -73 -36 -14 -104 -101 -125 -163 -22 -63
-78 -128 -132 -153 -53 -26 -52 -42 1 -41 40 1 43 -1 48 -29 4 -24 11 -31 35
-35 l30 -5 0 -405 -1 -405 -87 -3 c-96 -4 -98 -3 -68 57 15 29 19 56 18 119
-1 45 -5 82 -9 82 -4 0 -17 20 -28 45 -12 25 -25 43 -30 40 -18 -11 -70 -113
-70 -137 0 -13 -5 -29 -11 -35 -9 -9 -9 -19 -1 -40 6 -15 11 -41 10 -58 0 -16
1 -117 2 -223 l3 -193 -117 -113 c-64 -63 -116 -119 -116 -125 0 -20 39 -31
117 -32 127 -1 116 18 128 -233 11 -240 5 -853 -9 -875 -8 -12 -58 -13 -315
-7 -168 4 -445 9 -616 11 -170 2 -485 7 -700 10 -214 3 -525 8 -690 10 -304 5
-511 12 -532 20 -8 3 -10 143 -6 557 3 304 8 556 12 559 3 4 32 3 64 0 62 -8
171 9 191 29 8 8 0 21 -30 48 -156 139 -192 171 -216 186 l-27 18 5 149 c6
135 4 152 -12 170 -17 19 -17 21 4 57 14 26 18 42 11 54 -5 9 -9 27 -9 40 -2
69 -9 96 -33 122 l-27 28 -10 -27 c-8 -21 -13 -25 -24 -16 -18 15 -26 3 -19
-31 4 -21 1 -32 -13 -42 -17 -13 -17 -15 -1 -39 21 -32 22 -47 2 -47 -20 0
-19 -19 1 -42 15 -15 15 -18 2 -23 -9 -4 -37 -5 -64 -3 l-49 3 -2 373 -1 373
23 9 c13 5 25 19 27 32 3 20 9 23 45 23 71 1 73 17 9 75 -57 53 -83 98 -105
185 -35 135 -68 186 -131 202 -29 8 -35 14 -35 35 0 15 -3 30 -7 34 -13 12 12
33 51 44 20 5 54 27 75 49 49 50 57 99 26 159 -24 46 -53 65 -112 76 -42 8
-52 26 -15 26 32 0 55 19 63 53 5 24 0 34 -36 68 -31 30 -39 44 -31 52 8 8 17
5 33 -10 32 -29 62 -43 92 -43 29 0 33 12 11 30 -10 9 -12 17 -6 23 6 6 22 0
43 -17 36 -27 98 -46 98 -29 0 6 -9 18 -20 28 -50 45 1 62 57 19 23 -18 41
-24 57 -20 21 5 23 9 16 48 -8 43 -31 68 -62 68 -10 0 -25 11 -34 25 -22 34
-40 31 -78 -9 -39 -43 -71 -51 -71 -18 0 23 -19 42 -42 42 -7 0 -28 -13 -46
-30 -41 -35 -47 -37 -47 -9 0 14 -11 25 -36 35 l-37 15 7 167 7 167 30 24 c24
18 29 29 25 48 -4 15 -2 25 6 27 7 2 38 11 68 19 30 8 89 24 131 36 71 19 80
20 119 6 57 -20 57 -20 76 17 16 31 16 32 -10 55 -34 29 -73 29 -103 1 -35
-33 -225 -81 -297 -76 l-41 3 -9 148 c-7 116 -6 154 4 173 12 21 11 27 -7 47
-19 20 -21 39 -26 188 l-6 166 24 23 c31 30 34 84 6 100 -13 7 -21 23 -23 48
-4 45 -18 46 -39 2 -8 -18 -23 -37 -32 -42 -22 -12 -22 -61 1 -95 14 -23 18
-56 21 -196 2 -114 -1 -176 -8 -191 -7 -11 -10 -32 -9 -46 3 -25 2 -25 -92
-32 -123 -10 -293 -28 -301 -34 -3 -2 0 -38 7 -80 7 -42 16 -110 20 -150 4
-44 12 -79 21 -85 10 -9 52 -9 173 0 88 7 164 9 170 6 5 -3 10 -19 10 -34 0
-16 7 -34 15 -41 13 -11 15 -43 14 -198 l-1 -186 -27 -27 -27 -27 -27 20 c-33
24 -62 20 -62 -9 0 -33 -11 -37 -47 -15 -22 13 -43 18 -61 15 -24 -5 -28 -9
-23 -29 7 -28 -10 -32 -40 -9 -10 8 -29 15 -42 15 -21 0 -23 -3 -17 -31 7 -31
7 -32 -23 -26 -19 4 -34 2 -38 -5 -10 -15 45 -58 70 -55 13 1 22 -5 24 -18 6
-33 19 -39 46 -21 14 9 38 16 53 16 14 0 37 10 50 22 22 21 24 21 40 5 12 -12
16 -30 14 -58 -2 -31 3 -47 20 -65 24 -26 23 -28 -45 -39 -26 -4 -51 -18 -73
-40 -28 -28 -33 -40 -33 -83 0 -61 29 -109 85 -137 61 -31 66 -35 58 -48 -5
-7 -8 -21 -8 -31 0 -15 -11 -22 -46 -31 -26 -7 -52 -15 -58 -19 -23 -15 -88
-112 -101 -151 -34 -106 -72 -156 -147 -195 -54 -28 -55 -46 -3 -54 30 -5 43
-12 50 -30 5 -14 19 -26 32 -28 l23 -3 -1 -383 c-1 -264 -5 -387 -13 -395 -14
-14 -189 -23 -202 -10 -7 7 -1 21 15 41 31 36 31 41 9 58 -16 11 -16 17 -6 44
10 26 9 32 -3 37 -9 3 -15 17 -14 32 3 40 1 44 -15 31 -16 -13 -18 -11 -19 35
-1 46 -20 45 -30 -3 -6 -30 -14 -42 -27 -42 -14 0 -19 -11 -24 -47 -4 -27 -11
-58 -17 -70 -9 -17 -8 -32 4 -60 11 -28 16 -80 17 -193 l1 -155 -38 -51 c-93
-121 -172 -246 -172 -270 0 -16 0 -16 130 -18 l95 -1 13 -185 c16 -239 20
-558 27 -2250 3 -767 10 -1647 15 -1955 10 -546 8 -1094 -4 -1113 -7 -11 -123
-25 -231 -28 -44 -1 -192 -11 -330 -22 -421 -35 -534 -42 -687 -40 -143 2
-148 1 -173 -22 -14 -13 -25 -31 -25 -40 0 -31 -146 -295 -194 -351 -17 -20
-60 -83 -96 -140 -36 -57 -77 -117 -92 -134 -59 -65 -97 -113 -144 -180 -26
-38 -54 -76 -61 -83 -7 -7 -13 -17 -13 -21 0 -5 -16 -25 -35 -46 -19 -21 -32
-42 -29 -47 3 -4 1 -8 -4 -8 -11 0 -52 -73 -52 -95 0 -9 9 -28 20 -42 27 -35
15 -48 -21 -22 -40 28 -45 42 -52 129 -6 80 9 191 35 250 8 19 14 40 12 45 -1
6 -5 22 -8 38 -9 39 -56 56 -121 44 -64 -12 -556 -2 -615 12 -25 6 -94 29
-155 50 -60 21 -132 44 -160 50 -27 7 -97 35 -155 64 -101 50 -107 52 -165 46
-33 -3 -151 -7 -263 -8 -126 -1 -212 -6 -228 -13 -19 -9 -29 -29 -50 -97 -38
-129 -118 -366 -154 -456 -34 -87 -134 -286 -175 -350 -14 -22 -49 -79 -78
-127 -28 -48 -73 -108 -98 -135 -73 -77 -84 -98 -69 -133 15 -36 22 -37 35 -8
7 16 20 24 44 26 18 2 37 0 41 -5 5 -4 11 -150 14 -323 4 -173 8 -344 11 -380
2 -36 9 -207 15 -380 5 -173 12 -360 15 -415 2 -55 7 -158 10 -230 11 -259 15
-342 25 -470 5 -72 13 -199 16 -282 5 -126 4 -153 -7 -153 -35 -2 -310 4 -361
7 -32 2 -68 3 -80 3 -13 0 -78 0 -145 0 l-123 1 0 -75 0 -76 7600 0 7600 0 0
7300 c0 4857 -3 7300 -10 7300 -7 0 -11 -2374 -12 -7087z m-9609 3993 c7 -9
11 -42 9 -88 l-3 -73 -50 0 -50 0 -3 67 c-4 85 8 108 52 108 19 0 39 -6 45
-14z m111 -13 c0 -10 -7 -36 -16 -60 -19 -49 -13 -73 16 -73 29 0 22 -34 -8
-38 -16 -3 -25 4 -33 25 -10 27 -6 134 7 154 9 16 34 10 34 -8z m322 -9 c13
-8 21 -115 9 -140 -9 -21 -17 -24 -65 -24 l-54 0 -4 73 c-6 98 1 110 60 101
26 -3 50 -8 54 -10z m-187 -79 l0 -80 -30 0 c-40 0 -47 31 -11 45 30 11 32 26
12 75 -15 36 -11 48 14 43 12 -3 15 -19 15 -83z m-234 -245 c3 -41 1 -81 -4
-87 -15 -21 -75 -16 -87 6 -11 22 -14 144 -3 155 4 4 25 6 48 4 l40 -3 6 -75z
m240 0 c8 -97 4 -101 -94 -98 l-82 3 -3 83 -3 83 88 -3 88 -3 6 -65z m179 40
c6 -11 10 -51 8 -88 l-3 -67 -55 0 -55 0 -3 74 c-2 41 -1 80 2 88 3 8 22 13
50 13 35 0 48 -5 56 -20z m-425 -310 l0 -75 -55 0 -55 0 -3 57 c-4 82 8 100
66 96 l47 -3 0 -75z m239 72 c3 -5 2 -37 -2 -72 -7 -63 -8 -64 -42 -73 -19 -4
-55 -9 -80 -10 l-45 -2 -3 69 c-2 38 -1 75 2 83 6 15 161 19 170 5z m184 -8
c9 -3 12 -25 10 -81 l-3 -78 -54 3 c-29 1 -58 5 -62 8 -9 5 -3 120 7 152 3 11
60 9 102 -4z m-241 -244 c79 0 108 -11 62 -23 -17 -5 -20 -11 -15 -29 18 -57
18 -68 3 -68 -22 0 -32 19 -32 60 0 31 -3 35 -29 38 -41 5 -51 -10 -32 -46 16
-32 21 -74 10 -85 -12 -12 -45 42 -52 85 l-7 43 -70 6 c-39 4 -73 5 -77 2 -12
-6 -10 -51 2 -58 6 -3 10 -15 10 -26 0 -46 -47 0 -52 51 -3 31 -6 35 -35 38
-39 4 -42 -11 -17 -64 9 -19 14 -37 11 -41 -8 -8 -61 55 -67 81 -4 14 -15 22
-33 24 -15 2 -27 8 -27 14 0 8 53 9 182 5 99 -4 219 -7 265 -7z m151 -47 c15
-34 16 -70 0 -79 -17 -11 -38 26 -38 68 0 45 19 51 38 11z m187 1 c15 -24 16
-33 4 -85 -7 -33 -17 -59 -21 -59 -11 0 -10 24 3 57 9 24 7 30 -15 46 -35 25
-35 67 0 67 6 0 19 -12 29 -26z m118 19 c10 -17 -8 -176 -21 -181 -9 -3 -11 9
-6 50 5 43 3 56 -10 67 -16 14 -22 52 -9 64 9 9 41 9 46 0z m-886 -108 c-2
-45 -6 -60 -17 -60 -17 0 -17 2 -6 68 7 38 5 51 -8 66 -9 10 -13 21 -9 25 4 4
15 -3 25 -16 13 -17 17 -39 15 -83z m303 24 c0 -23 -8 -24 -32 -2 -18 17 -24
44 -11 57 10 10 43 -32 43 -55z m361 38 c-1 -12 -15 -9 -19 4 -3 6 1 10 8 8 6
-3 11 -8 11 -12z m3427 -53 c18 -36 20 -49 11 -66 -6 -12 -8 -37 -5 -59 5 -31
3 -39 -9 -39 -11 0 -15 12 -15 52 0 39 -5 57 -21 74 -16 17 -19 29 -14 53 9
43 26 38 53 -15z m382 29 c0 -10 7 -27 15 -37 31 -41 5 -65 -29 -28 -11 13
-14 28 -10 50 7 34 24 44 24 15z m231 -37 c15 -36 17 -52 8 -67 -11 -21 -11
-21 -35 2 -18 17 -24 33 -24 64 0 72 23 73 51 1z m197 15 c5 -49 -3 -64 -28
-51 -14 7 -20 21 -20 44 0 37 7 48 30 44 9 -2 16 -16 18 -37z m-701 -15 c13
-42 6 -52 -19 -29 -18 16 -24 44 -11 56 13 13 20 7 30 -27z m198 -6 c17 -34
20 -80 4 -80 -11 0 -48 39 -49 52 0 11 19 58 24 58 3 0 12 -13 21 -30z m405
-18 c16 -42 4 -54 -20 -22 -20 26 -25 51 -13 64 9 8 17 -2 33 -42z m-212 25
c35 -41 14 -108 -22 -69 -11 13 -14 28 -10 50 7 34 15 39 32 19z m-294 -19 c8
-12 13 -25 10 -30 -8 -12 -44 21 -44 39 0 20 17 16 34 -9z m-307 -58 c-1 -41
-6 -60 -14 -60 -14 0 -19 110 -7 123 15 15 22 -7 21 -63z m-3893 38 c7 -27 -9
-47 -25 -31 -12 12 -3 53 11 53 4 0 10 -10 14 -22z m504 -16 c2 -7 -3 -12 -12
-12 -9 0 -16 7 -16 16 0 17 22 14 28 -4z m-404 -13 c-3 -5 -10 -7 -15 -3 -5 3
-7 10 -3 15 3 5 10 7 15 3 5 -3 7 -10 3 -15z m206 -5 c0 -16 -16 -19 -25 -4
-8 13 4 32 16 25 5 -4 9 -13 9 -21z m-110 6 c0 -5 -5 -10 -11 -10 -5 0 -7 5
-4 10 3 6 8 10 11 10 2 0 4 -4 4 -10z m205 0 c3 -5 1 -10 -4 -10 -6 0 -11 5
-11 10 0 6 2 10 4 10 3 0 8 -4 11 -10z m4310 -71 c7 -33 3 -45 -14 -34 -13 8
-15 65 -2 65 5 0 12 -14 16 -31z m-4714 11 c66 0 109 -4 109 -10 0 -11 -257
-14 -309 -4 -58 12 -34 27 30 20 34 -3 111 -6 170 -6z m4114 -11 c8 -24 -10
-48 -25 -33 -10 10 -2 54 10 54 5 0 12 -9 15 -21z m299 5 c7 -19 -13 -49 -25
-37 -10 10 0 53 11 53 4 0 11 -7 14 -16z m-3984 -4 c0 -5 -4 -10 -10 -10 -5 0
-10 5 -10 10 0 6 5 10 10 10 6 0 10 -4 10 -10z m190 0 c0 -6 -32 -10 -76 -10
-47 0 -73 4 -69 10 3 6 37 10 76 10 39 0 69 -4 69 -10z m3590 -20 c0 -11 -4
-20 -10 -20 -5 0 -10 9 -10 20 0 11 5 20 10 20 6 0 10 -9 10 -20z m105 2 c0
-18 -20 -15 -23 4 -3 10 1 15 10 12 7 -3 13 -10 13 -16z m195 -8 c0 -9 -5 -14
-12 -12 -18 6 -21 28 -4 28 9 0 16 -7 16 -16z m-517 -64 c26 0 47 -4 47 -10 0
-6 -30 -10 -70 -10 -58 0 -70 3 -70 16 0 12 6 15 23 10 12 -3 43 -6 70 -6z
m507 -20 c0 -6 -37 -10 -90 -10 -53 0 -90 4 -90 10 0 6 37 10 90 10 53 0 90
-4 90 -10z m290 0 c0 -6 -48 -10 -125 -10 -77 0 -125 4 -125 10 0 6 48 10 125
10 77 0 125 -4 125 -10z m-384 -337 c-4 -25 -26 -28 -26 -4 0 12 6 21 14 21 8
0 13 -8 12 -17z m-4238 -300 c-3 -15 -16 -19 -72 -21 -38 -2 -73 1 -79 7 -20
20 6 31 79 31 66 0 75 -2 72 -17z m477 -8 c0 -18 -8 -20 -64 -23 -67 -3 -88 6
-77 33 5 13 19 15 73 13 60 -3 68 -5 68 -23z m3569 -64 c4 -5 2 -21 -4 -36 -9
-25 -13 -26 -72 -23 -60 3 -63 4 -63 28 0 22 5 26 45 31 72 10 88 10 94 0z
m471 -42 c16 -15 -7 -26 -68 -34 -60 -7 -77 4 -63 41 5 13 16 14 63 9 32 -4
62 -11 68 -16z m-4507 -55 c9 -2 12 -47 12 -178 0 -96 -3 -177 -7 -179 -5 -3
-51 -2 -103 2 l-95 6 -3 170 c-1 93 0 175 2 182 4 9 28 11 93 7 48 -3 94 -7
101 -10z m459 -15 c14 -14 5 -328 -11 -348 -11 -14 -112 -10 -126 6 -10 10
-22 338 -13 346 11 12 138 8 150 -4z m4073 -159 c0 -11 -4 -20 -10 -20 -5 0
-10 9 -10 20 0 11 5 20 10 20 6 0 10 -9 10 -20z m-10 -255 c0 -37 -4 -65 -10
-65 -6 0 -10 28 -10 65 0 37 4 65 10 65 6 0 10 -28 10 -65z m-3082 -167 c16
-16 15 -53 -1 -67 -18 -15 -37 5 -37 39 0 39 15 51 38 28z m-618 -49 c0 -26
-20 -34 -38 -16 -13 14 -14 21 -3 44 12 27 13 27 27 8 8 -10 14 -27 14 -36z
m83 21 c3 -11 2 -20 -3 -20 -14 0 -32 29 -25 40 9 14 21 5 28 -20z m87 -13 c0
-50 -7 -62 -27 -46 -23 20 -14 89 13 89 10 0 14 -13 14 -43z m278 -7 c-2 -8
-10 -15 -18 -15 -17 0 -25 28 -15 53 6 15 8 15 21 -3 8 -11 13 -26 12 -35z
m372 20 c6 -11 10 -43 9 -72 -1 -29 0 -62 2 -73 5 -23 -20 -31 -42 -13 -21 17
-15 178 7 178 7 0 18 -9 24 -20z m385 -66 c0 -64 -3 -79 -15 -79 -8 0 -13 7
-11 15 13 46 12 77 -3 89 -19 16 -20 33 -4 49 24 24 33 5 33 -74z m-283 51 c6
-14 8 -28 5 -31 -10 -11 -37 17 -37 37 0 27 18 23 32 -6z m189 -13 c7 -37 -6
-51 -28 -30 -9 10 -12 24 -7 42 8 35 27 28 35 -12z m1374 -4 c8 -23 10 -60 6
-100 -5 -54 -9 -63 -26 -63 -13 0 -20 6 -19 18 0 9 1 56 2 103 2 92 14 107 37
42z m-2131 16 c4 -9 4 -19 2 -21 -8 -8 -26 8 -26 23 0 19 16 18 24 -2z m336
-3 c0 -23 -16 -36 -25 -21 -9 14 1 40 15 40 5 0 10 -9 10 -19z m320 -7 c14
-36 12 -46 -6 -42 -23 4 -39 32 -31 52 9 24 26 20 37 -10z m394 -7 c11 -30 4
-42 -19 -34 -19 8 -21 71 -2 65 6 -3 16 -17 21 -31z m196 3 c7 -16 9 -37 6
-47 -6 -15 -9 -15 -28 4 -15 16 -19 28 -14 47 8 34 21 33 36 -4z m93 3 c6 -33
-5 -49 -21 -30 -12 14 -6 57 8 57 4 0 10 -12 13 -27z m95 -11 c2 -23 -1 -32
-12 -32 -21 0 -29 17 -22 46 9 34 30 25 34 -14z m394 6 c18 -38 13 -151 -6
-145 -6 2 -10 18 -8 36 2 18 -3 43 -12 56 -20 30 -21 85 -3 85 7 0 20 -15 29
-32z m91 -7 c21 -35 21 -41 4 -41 -21 0 -50 37 -44 55 9 22 21 18 40 -14z m87
-7 c0 -26 -17 -33 -26 -9 -8 20 3 48 16 40 5 -3 10 -17 10 -31z m-862 -4 c3
-21 2 -22 -12 -11 -19 16 -21 44 -3 39 6 -3 14 -15 15 -28z m497 9 c4 -11 4
-23 1 -27 -10 -9 -39 25 -32 37 11 17 24 13 31 -10z m753 -20 c-1 -13 -7 -23
-13 -22 -13 3 -18 30 -11 50 10 24 29 1 24 -28z m-851 19 c5 -7 9 -40 8 -73 0
-46 -4 -60 -15 -60 -12 0 -15 15 -16 73 -1 71 4 84 23 60z m193 -18 c0 -26
-15 -33 -30 -15 -10 12 -10 18 0 30 15 18 30 11 30 -15z m564 -1 c19 -38 5
-79 -19 -59 -21 18 -27 47 -15 70 14 26 16 26 34 -11z m-84 -4 c0 -8 -4 -15
-10 -15 -5 0 -10 7 -10 15 0 8 5 15 10 15 6 0 10 -7 10 -15z m-2290 -35 c0
-11 -4 -20 -10 -20 -5 0 -10 9 -10 20 0 11 5 20 10 20 6 0 10 -9 10 -20z
m-198 -42 c-9 -9 -15 -9 -23 -1 -7 7 -9 20 -5 29 6 16 8 16 23 1 13 -13 15
-19 5 -29z m361 11 c-4 -13 -9 -17 -16 -10 -12 12 -1 45 12 37 5 -3 7 -15 4
-27z m77 1 c0 -5 -4 -10 -10 -10 -5 0 -10 5 -10 10 0 6 5 10 10 10 6 0 10 -4
10 -10z m885 -20 c-5 -8 -11 -8 -17 -2 -6 6 -7 16 -3 22 5 8 11 8 17 2 6 -6 7
-16 3 -22z m-710 10 c3 -5 1 -10 -4 -10 -6 0 -11 5 -11 10 0 6 2 10 4 10 3 0
8 -4 11 -10z m813 -13 c2 -10 -3 -17 -12 -17 -18 0 -29 16 -21 31 9 14 29 6
33 -14z m496 6 c8 -21 -10 -41 -24 -27 -11 11 -3 44 10 44 4 0 11 -8 14 -17z
m-394 -19 c0 -16 -16 -19 -25 -4 -8 13 4 32 16 25 5 -4 9 -13 9 -21z m750 1
c0 -8 -4 -15 -10 -15 -5 0 -10 7 -10 15 0 8 5 15 10 15 6 0 10 -7 10 -15z
m290 -15 c0 -5 -4 -10 -10 -10 -5 0 -10 5 -10 10 0 6 5 10 10 10 6 0 10 -4 10
-10z m-1520 -63 c41 -2 55 -6 55 -17 0 -13 -42 -15 -320 -14 -605 2 -898 6
-911 11 -8 3 -14 11 -14 18 0 10 110 12 568 8 312 -2 592 -5 622 -6z m1020
-22 c511 -14 560 -17 560 -33 0 -13 -31 -14 -277 -9 -153 4 -433 10 -623 12
-426 7 -490 11 -490 32 0 14 38 15 373 8 204 -4 410 -9 457 -10z m-250 -170
c56 -29 91 -96 123 -239 19 -82 21 -123 21 -431 1 -356 -9 -528 -28 -522 -13
4 -54 85 -92 182 -15 39 -33 85 -40 103 -13 31 -14 32 -81 34 -37 1 -92 0
-121 0 -35 -2 -54 2 -58 11 -10 27 16 573 30 640 21 96 63 183 105 218 31 26
41 29 76 23 22 -3 51 -12 65 -19z m-1583 2 c32 -18 82 -85 94 -126 8 -30 8
-462 -1 -546 -2 -11 -1 -194 1 -406 l3 -386 -73 -119 c-206 -333 -287 -454
-301 -451 -10 1 -17 19 -21 57 -8 86 -1 462 11 564 7 57 10 294 9 641 -2 537
-2 552 19 619 24 78 72 137 125 154 44 14 108 14 134 -1z m1011 -1 c62 -33 93
-87 116 -206 14 -70 16 -138 14 -380 l-3 -294 -190 -1 -190 0 -8 105 c-12 148
-2 460 17 542 29 125 69 193 134 228 44 23 74 25 110 6z m-507 -55 c39 -40 53
-65 74 -133 26 -82 26 -85 25 -383 0 -164 -3 -301 -5 -303 -2 -2 -45 -5 -96
-6 -81 -1 -93 -3 -103 -21 -6 -11 -17 -24 -23 -28 -7 -4 -13 -16 -13 -26 0
-10 -9 -30 -20 -44 -11 -14 -20 -28 -20 -32 0 -3 -13 -25 -29 -48 -16 -23 -30
-51 -32 -61 -7 -36 -24 -17 -32 36 -4 29 -6 235 -5 458 l3 405 28 85 c37 111
77 148 161 149 35 1 46 -5 87 -48z m1627 28 c33 -11 93 -83 112 -134 6 -16 18
-97 26 -179 19 -184 32 -1660 16 -1670 -12 -7 -34 20 -106 129 -90 137 -167
248 -197 286 -16 20 -29 40 -29 43 0 3 -20 37 -45 74 l-45 68 10 524 c10 580
16 635 74 760 47 102 98 129 184 99z m-3269 -105 c11 -3 11 -7 1 -19 -17 -21
-133 -21 -150 0 -22 27 -2 36 68 29 37 -3 73 -8 81 -10z m481 -8 c0 -23 -132
-38 -145 -16 -13 21 9 30 76 30 52 0 69 -3 69 -14z m4005 -41 c0 -18 -7 -20
-65 -20 -51 0 -65 3 -65 15 0 10 14 17 40 21 67 11 90 6 90 -16z m-470 -15 c0
-11 -15 -16 -62 -18 -34 -1 -64 2 -68 8 -13 22 9 31 68 28 47 -2 62 -7 62 -18z
m-4007 -125 c10 -4 11 -41 6 -177 -3 -95 -10 -177 -14 -181 -4 -4 -45 -7 -91
-5 l-84 3 -8 55 c-10 65 -1 288 12 304 9 11 147 11 179 1z m455 -5 c11 -9 9
-300 -1 -350 l-8 -35 -69 0 -70 0 -3 190 c-1 104 0 195 2 201 5 13 134 8 149
-6z m3558 -230 c-1 -124 -6 -199 -13 -208 -8 -9 -31 -12 -72 -10 l-61 3 -2
200 c0 110 1 204 4 208 3 4 36 7 75 5 l71 -3 -2 -195z m477 -7 c3 -223 7 -215
-100 -211 l-63 3 0 185 c0 102 3 193 7 203 7 15 18 17 80 15 l73 -3 3 -192z
m-3748 -373 c0 -27 -4 -50 -10 -50 -5 0 -10 23 -10 50 0 28 5 50 10 50 6 0 10
-22 10 -50z m-10 -469 c0 -6 -4 -13 -10 -16 -5 -3 -10 1 -10 9 0 9 5 16 10 16
6 0 10 -4 10 -9z m-275 -146 c0 -17 -8 -20 -57 -23 -62 -3 -98 9 -98 34 0 12
14 14 78 12 69 -3 77 -5 77 -23z m-461 -5 c18 -18 -8 -30 -63 -30 -58 0 -90
17 -77 39 7 10 126 3 140 -9z m4004 -2 c28 -28 13 -38 -58 -36 -72 1 -86 7
-76 33 7 19 116 21 134 3z m480 -35 c3 -19 -3 -22 -58 -28 -65 -8 -87 1 -77
29 4 9 23 16 54 19 71 5 78 4 81 -20z m-4527 -119 l44 -6 -3 -182 c-3 -107 -8
-186 -15 -194 -7 -9 -33 -12 -85 -10 l-75 3 2 189 c1 105 4 193 7 198 6 9 63
10 125 2z m502 -1 c2 -5 1 -93 -2 -198 l-6 -190 -67 0 -68 0 -3 193 c-2 106
-1 195 2 197 7 8 140 6 144 -2z m3540 -40 c12 -7 7 -356 -5 -370 -13 -16 -92
-17 -119 -3 -18 10 -19 23 -19 194 0 100 3 186 7 190 8 7 121 -2 136 -11z
m492 -203 l0 -185 -82 -3 -83 -3 0 184 c0 101 3 187 7 191 4 4 41 5 83 4 l75
-3 0 -185z m-3935 -50 c0 -16 -4 -30 -10 -30 -5 0 -10 14 -10 30 0 17 5 30 10
30 6 0 10 -13 10 -30z m1664 -12 c22 -45 36 -66 69 -109 15 -20 27 -43 27 -50
-1 -13 -29 19 -55 61 -5 9 -25 38 -42 65 -34 51 -39 65 -24 65 5 0 16 -15 25
-32z m-234 -55 c0 -11 -51 -86 -75 -109 -11 -11 -69 -79 -129 -151 -60 -73
-113 -130 -117 -127 -7 4 48 73 240 304 21 25 44 55 52 68 13 21 29 29 29 15z
m454 -262 c-8 -8 -64 52 -64 68 0 10 14 0 34 -24 19 -22 32 -42 30 -44z
m-1983 -148 c-68 -65 -129 -120 -135 -121 -6 -2 43 51 110 117 66 67 127 121
134 121 8 0 -41 -53 -109 -117z m3389 -53 c0 -5 -2 -10 -4 -10 -3 0 -8 5 -11
10 -3 6 -1 10 4 10 6 0 11 -4 11 -10z m-1200 -105 c15 -18 17 -17 -40 -16
-227 2 -776 -1 -897 -4 -129 -4 -153 -3 -153 9 0 8 8 17 18 19 9 2 252 5 539
5 444 1 523 -1 533 -13z m-1350 -20 c2 -22 -95 -26 -510 -21 -506 6 -440 4
-440 16 0 17 949 23 950 5z m60 0 c0 -17 -2 -18 -24 -9 -23 9 -20 24 4 24 11
0 20 -7 20 -15z m2529 0 c6 -3 8 -11 5 -17 -5 -7 -106 -8 -328 -4 -176 4 -395
7 -486 8 -172 2 -200 4 -200 19 0 11 992 5 1009 -6z m-2049 -100 c0 -19 -4
-35 -10 -35 -11 0 -14 53 -3 63 11 12 13 8 13 -28z m-1109 -275 c3 -162 9
-367 12 -455 4 -88 9 -403 13 -700 3 -297 8 -548 10 -557 7 -23 -21 -24 -30
-3 -3 9 -3 47 -1 86 3 38 1 78 -5 88 -5 11 -14 193 -20 428 -25 1032 -31 1393
-25 1403 4 6 14 10 23 8 15 -3 18 -35 23 -298z m1683 244 c9 -70 7 -154 -4
-154 -5 0 -10 15 -10 33 0 17 -3 62 -7 100 -7 77 10 95 21 21z m1153 -14 c8
-167 9 -1810 1 -1802 -5 5 -11 274 -13 638 -6 738 -13 1112 -22 1173 -5 39 -4
43 13 39 15 -3 19 -13 21 -48z m-3571 -71 c11 -19 -13 -31 -68 -33 -41 -1 -53
2 -53 14 0 10 8 14 22 12 12 -2 24 2 28 8 8 13 62 13 71 -1z m4014 -13 c0 -10
-19 -15 -67 -18 -68 -5 -91 1 -79 21 11 17 146 14 146 -3z m450 0 c0 -20 -32
-28 -75 -20 -63 11 -40 26 53 32 13 1 22 -4 22 -12z m-4010 -31 c0 -11 -13
-15 -54 -15 -51 0 -74 9 -59 24 3 3 30 6 60 6 40 0 53 -4 53 -15z m1185 -15
c0 -11 -15 -16 -64 -18 -64 -3 -89 6 -76 28 4 7 32 10 73 8 52 -2 67 -6 67
-18z m1650 10 c13 -22 -17 -40 -66 -40 -49 0 -65 10 -55 35 6 18 111 21 121 5z
m-2125 -14 c0 -17 -31 -26 -87 -26 -31 0 -43 4 -43 14 0 11 15 16 53 19 28 2
58 4 65 5 6 1 12 -4 12 -12z m1620 -1 c0 -12 -14 -15 -65 -15 -51 0 -65 3 -65
15 0 12 14 15 65 15 51 0 65 -3 65 -15z m1155 -279 l0 -184 -37 3 c-21 2 -41
6 -46 9 -12 7 -14 299 -2 330 8 22 16 26 47 26 l38 0 0 -184z m-3985 166 c0
-5 -7 -58 -16 -118 -8 -60 -14 -136 -12 -169 l3 -60 -34 -3 c-18 -2 -37 0 -42
5 -10 10 -15 325 -5 341 8 13 106 17 106 4z m2788 -170 c2 -70 4 -143 5 -162
l2 -35 -50 1 -50 1 -3 153 c-1 85 -1 159 2 165 2 6 23 9 47 7 l44 -4 3 -126z
m-1607 92 c-10 -50 -11 -209 -2 -237 16 -45 -4 -63 -56 -50 l-38 9 -3 139 c-1
76 -1 144 2 151 3 7 23 11 53 9 41 -2 47 -5 44 -21z m709 -4 c0 -5 -4 -10 -10
-10 -5 0 -10 5 -10 10 0 6 5 10 10 10 6 0 10 -4 10 -10z m590 -335 c0 -57 -4
-95 -10 -95 -6 0 -10 38 -10 95 0 57 4 95 10 95 6 0 10 -38 10 -95z m-2440 5
c0 -5 -7 -10 -15 -10 -8 0 -15 5 -15 10 0 6 7 10 15 10 8 0 15 -4 15 -10z
m1874 -142 c11 -59 19 -658 9 -658 -10 0 -21 186 -29 503 -3 109 -1 187 5 187
5 0 12 -15 15 -32z m264 -35 c-3 -31 -34 -44 -44 -19 -9 24 3 46 26 46 17 0
21 -5 18 -27z m42 -67 c0 -14 -5 -28 -10 -31 -13 -8 -24 20 -16 40 9 24 26 17
26 -9z m1912 -7 c20 -8 32 -8 41 -1 14 12 490 12 503 0 4 -4 1 -14 -6 -23 -10
-11 -35 -15 -109 -15 -53 0 -102 5 -107 10 -7 7 -27 7 -64 -1 -67 -14 -167 -5
-193 19 -11 9 -17 12 -14 6 12 -21 -17 -30 -107 -33 -115 -4 -336 18 -336 33
0 16 354 21 392 5z m-3513 -31 c18 -7 21 -12 13 -20 -16 -16 -792 -25 -792 -9
0 6 12 11 28 11 104 1 351 12 422 19 113 11 299 10 329 -1z m-859 -28 c0 -5
-4 -10 -10 -10 -5 0 -10 5 -10 10 0 6 5 10 10 10 6 0 10 -4 10 -10z m3631 -26
c35 -33 71 -138 67 -191 l-3 -38 -170 0 c-164 0 -170 1 -168 20 12 131 30 180
79 212 62 40 151 39 195 -3z m-547 -14 c36 -16 49 -30 70 -72 28 -57 34 -119
12 -137 -9 -8 -68 -11 -187 -9 l-174 3 -3 29 c-4 33 23 111 47 140 19 23 80
62 107 69 28 8 77 -1 128 -23z m-1618 -11 c19 -15 58 -92 68 -132 8 -35 -1
-52 -20 -36 -7 6 -21 8 -30 5 -19 -7 -14 -31 7 -31 8 0 15 -4 17 -10 1 -6 -34
-11 -87 -13 -82 -2 -91 -1 -101 18 -16 30 -5 39 40 35 49 -4 58 7 24 30 -22
14 -25 22 -20 50 8 42 -7 53 -28 20 -21 -32 -32 -26 -40 21 -11 56 5 67 86 62
37 -3 75 -11 84 -19z m487 10 c55 -15 113 -71 121 -117 4 -20 9 -45 12 -55 10
-33 -51 -47 -210 -47 -82 0 -147 4 -151 10 -3 5 1 33 10 63 11 39 28 65 63 99
63 61 83 67 155 47z m545 -3 c42 -22 78 -66 107 -128 27 -60 27 -96 -3 -120
-18 -15 -339 -15 -355 1 -12 12 7 99 32 149 47 92 146 136 219 98z m3912 -57
c0 -20 -108 -213 -139 -246 -28 -32 -51 -43 -51 -23 0 5 13 24 29 42 15 18 45
67 66 108 21 41 46 87 57 103 20 28 38 36 38 16z m-5150 -24 c0 -21 -24 -45
-44 -45 -11 0 -6 26 10 48 20 29 34 28 34 -3z m-12 -112 c-4 -22 -38 -30 -38
-10 0 14 13 24 33 26 5 1 7 -7 5 -16z m-2725 -35 c75 -125 128 -220 125 -228
-5 -17 -24 4 -58 65 -18 33 -51 84 -72 114 -21 30 -38 58 -38 63 0 17 30 7 43
-14z m3037 -53 c8 -10 12 -66 11 -191 -1 -97 -4 -180 -7 -185 -9 -15 -191 -9
-204 6 -13 15 -33 197 -34 305 l-1 65 35 5 c86 12 188 10 200 -5z m525 4 c4
-5 9 -91 11 -189 l5 -179 -23 -5 c-57 -12 -347 -16 -353 -6 -19 30 -24 336 -7
368 12 22 17 22 187 22 111 0 176 -4 180 -11z m1116 -54 c4 -33 8 -118 10
-190 l4 -130 -204 2 c-118 2 -209 7 -214 12 -12 12 -16 327 -5 354 7 16 24 17
205 15 l198 -3 6 -60z m510 5 c4 -25 8 -108 9 -185 l3 -140 -183 -3 c-101 -1
-188 2 -192 6 -10 10 -9 317 0 365 1 4 82 6 180 5 l177 -3 6 -45z m-2423 -102
c16 -191 16 -218 -5 -234 -25 -19 -57 -17 -75 4 -21 23 -30 159 -17 247 6 39
10 82 9 98 0 25 3 27 38 27 l38 0 12 -142z m1217 122 c3 -11 10 -20 15 -20 13
0 21 -47 11 -73 -7 -18 -5 -30 5 -46 19 -27 46 -27 69 0 16 16 17 25 8 48 -12
33 -2 57 19 48 11 -4 16 -36 22 -138 4 -81 3 -136 -3 -142 -6 -6 -98 -12 -206
-14 -154 -3 -196 -1 -199 9 -9 28 -12 278 -4 286 5 5 10 16 11 23 6 36 18 39
132 39 105 0 114 -2 120 -20z m215 -50 c0 -16 -4 -30 -10 -30 -11 0 -14 43 -3
53 11 12 13 8 13 -23z m2083 -62 c21 -11 15 -23 -11 -23 -14 0 -18 -15 -22
-100 l-5 -100 -65 0 -65 0 0 58 c0 34 -4 56 -10 54 -5 -2 -23 -28 -40 -58 -55
-100 -79 -55 -26 49 58 114 159 164 244 120z m-563 -43 c60 -30 80 -64 71
-120 -5 -35 -10 -40 -35 -43 -16 -2 -39 -1 -52 2 -22 6 -24 11 -24 76 0 38 -4
71 -8 74 -14 9 -89 -52 -111 -89 -18 -32 -48 -45 -64 -29 -3 3 2 24 12 47 14
32 30 48 77 74 32 18 65 33 72 33 7 0 35 -11 62 -25z m956 18 c-2 -3 -8 -5
-13 -6 -15 -2 -45 -48 -74 -115 -28 -67 -57 -91 -51 -42 6 41 64 140 90 154
22 12 57 18 48 9z m984 -57 c0 -11 5 -70 10 -130 12 -124 4 -147 -31 -90 -19
32 -23 53 -25 133 -2 53 2 101 7 108 15 17 39 4 39 -21z m-5745 14 c3 -5 -3
-10 -15 -10 -12 0 -18 5 -15 10 3 6 10 10 15 10 5 0 12 -4 15 -10z m-380 -10
c3 -5 -3 -10 -15 -10 -12 0 -18 5 -15 10 3 6 10 10 15 10 5 0 12 -4 15 -10z
m5350 0 c3 -5 1 -10 -4 -10 -6 0 -11 5 -11 10 0 6 2 10 4 10 3 0 8 -4 11 -10z
m-5640 -10 c4 -6 -35 -10 -110 -10 -75 0 -114 4 -110 10 3 6 52 10 110 10 58
0 107 -4 110 -10z m2955 -16 c0 -8 -4 -14 -10 -14 -5 0 -10 9 -10 21 0 11 5
17 10 14 6 -3 10 -13 10 -21z m-3345 6 c4 -6 -10 -10 -35 -10 -25 0 -39 4 -35
10 3 6 19 10 35 10 16 0 32 -4 35 -10z m-190 -10 c3 -5 -1 -10 -10 -10 -9 0
-13 5 -10 10 3 6 8 10 10 10 2 0 7 -4 10 -10z m6800 -30 c-3 -5 -1 -10 4 -10
6 0 11 -9 11 -20 0 -24 -15 -27 -24 -4 -9 24 -7 44 5 44 5 0 7 -4 4 -10z
m-5213 -27 c27 -15 54 -36 60 -47 11 -20 10 -20 -15 -3 -15 9 -30 17 -36 17
-5 0 -8 -33 -7 -72 l1 -73 -58 -3 c-40 -2 -59 1 -62 10 -3 7 -1 43 3 80 7 53
6 68 -5 73 -23 8 -100 -82 -110 -128 -5 -26 -20 -44 -29 -35 -2 3 10 39 27 82
29 70 36 79 78 101 60 31 92 31 153 -2z m4692 1 c7 -27 1 -43 -10 -31 -10 10
-13 57 -4 57 4 0 11 -12 14 -26z m-5254 -34 c51 -26 69 -62 61 -120 l-6 -45
-60 -6 c-33 -4 -63 -5 -66 -3 -4 2 -4 33 -2 68 7 87 2 101 -34 83 -16 -8 -34
-12 -42 -9 -17 6 64 51 92 52 10 0 36 -9 57 -20z m-1260 -25 c0 -3 -12 -24
-27 -46 -15 -23 -32 -66 -38 -97 -6 -31 -17 -58 -24 -60 -25 -8 13 122 55 186
13 20 34 30 34 17z m-230 -56 c-3 -24 -5 -72 -5 -107 0 -43 -4 -62 -12 -62 -7
0 -13 12 -14 28 -1 15 -2 54 -4 87 -3 65 8 109 27 103 8 -3 11 -19 8 -49z
m724 -1 c-9 -18 -22 -52 -28 -76 -13 -49 -32 -56 -28 -11 2 29 33 100 55 128
19 23 19 -5 1 -41z m606 29 c-8 -7 -16 -19 -18 -27 -7 -33 -41 -100 -51 -100
-20 0 -20 18 1 61 21 45 53 79 72 79 6 0 4 -6 -4 -13z m2681 -141 c2 -102 0
-141 -9 -144 -9 -3 -12 34 -12 149 0 193 17 188 21 -5z m1305 122 c10 -15 5
-350 -6 -463 -5 -49 -10 -124 -11 -165 -1 -41 -5 -84 -9 -95 -7 -19 -8 -18
-13 5 -3 14 -8 95 -11 180 -2 85 -10 237 -17 337 -10 149 -10 185 0 197 16 19
57 21 67 4z m270 -39 c17 -14 19 -100 2 -117 -13 -13 -67 -14 -107 -3 -23 6
-25 10 -22 66 1 33 7 65 12 71 11 13 94 1 115 -17z m2015 19 c17 -14 37 -111
41 -193 3 -67 -13 -65 -64 7 -38 54 -40 59 -28 88 7 16 10 42 7 57 -9 49 11
68 44 41z m-3736 -88 c-4 -96 -15 -169 -27 -176 -17 -11 -19 3 -6 50 11 43 11
51 -10 89 -28 54 -28 91 0 111 35 25 46 5 43 -74z m441 44 c1 -10 5 -34 9 -51
9 -38 -11 -46 -38 -15 -15 16 -15 35 -1 80 6 19 27 9 30 -14z m2304 16 c0 -5
-7 -10 -15 -10 -8 0 -15 5 -15 10 0 6 7 10 15 10 8 0 15 -4 15 -10z m680 0 c0
-5 -5 -10 -11 -10 -5 0 -7 5 -4 10 3 6 8 10 11 10 2 0 4 -4 4 -10z m-4429 -31
c11 -40 10 -89 -2 -89 -18 0 -38 32 -39 62 0 58 27 77 41 27z m419 6 c21 -54
23 -75 8 -75 -25 0 -50 75 -31 93 10 11 13 9 23 -18z m922 -27 c21 -44 24 -63
20 -111 -6 -74 -28 -73 -24 2 3 40 -2 61 -20 94 -23 40 -26 67 -9 67 4 0 18
-24 33 -52z m440 -5 c5 -63 2 -77 -13 -68 -12 8 -12 125 0 125 5 0 11 -26 13
-57z m167 -2 c11 -37 10 -46 -2 -59 -14 -13 -18 -11 -36 18 -11 19 -18 37 -16
40 3 4 9 20 15 35 13 34 22 25 39 -34z m189 11 c2 -32 0 -42 -12 -42 -20 0
-35 47 -27 86 1 3 9 4 19 2 12 -2 18 -15 20 -46z m843 -108 c10 -241 10 -564
0 -564 -12 0 -24 37 -16 50 6 9 -9 427 -21 577 -5 75 -1 97 19 90 8 -2 14 -54
18 -153z m188 142 c17 -20 10 -97 -10 -109 -9 -6 -36 -7 -62 -3 l-47 7 0 53
c0 29 3 56 7 59 13 13 100 7 112 -7z m741 -125 c0 -76 3 -160 6 -187 5 -40 4
-47 -6 -37 -25 23 -33 363 -9 363 5 0 9 -62 9 -139z m161 37 c0 -57 4 -139 9
-183 5 -44 12 -158 16 -254 6 -147 5 -173 -7 -169 -11 4 -15 41 -20 174 -4 93
-10 251 -14 352 -6 136 -5 182 3 182 8 0 12 -32 13 -102z m-5877 77 c3 -8 1
-15 -3 -15 -5 0 -11 7 -15 15 -3 8 -1 15 3 15 5 0 11 -7 15 -15z m561 5 c3 -5
1 -10 -4 -10 -6 0 -11 5 -11 10 0 6 2 10 4 10 3 0 8 -4 11 -10z m1766 -17 c0
-16 2 -36 4 -45 4 -24 -10 -31 -25 -13 -8 9 -10 28 -6 50 8 42 26 47 27 8z
m244 -9 c19 -45 19 -54 1 -54 -24 0 -38 27 -31 60 4 16 8 30 11 30 2 0 11 -16
19 -36z m873 10 c2 -32 -5 -45 -22 -38 -16 6 -9 64 8 64 6 0 13 -12 14 -26z
m1866 -81 c3 -60 9 -200 12 -313 3 -113 6 -222 8 -242 4 -41 -17 -60 -33 -30
-10 20 -26 665 -17 681 17 26 23 4 30 -96z m798 -63 c4 -91 5 -167 2 -169 -11
-12 -20 18 -26 92 -22 248 -22 249 -2 245 17 -3 20 -18 26 -168z m-4505 154
c-3 -4 1 -20 9 -36 20 -38 8 -51 -17 -19 -24 29 -25 61 -2 61 9 0 14 -3 10 -6z
m878 -114 c0 -65 -3 -90 -12 -90 -10 0 -13 27 -13 102 0 82 2 99 13 89 8 -8
12 -43 12 -101z m203 71 c18 -32 20 -44 12 -66 -6 -15 -9 -44 -8 -64 2 -27 -1
-36 -12 -36 -12 0 -14 11 -12 57 2 38 -2 66 -13 88 -16 31 -15 60 3 60 5 0 18
-18 30 -39z m1157 10 c17 -34 5 -50 -19 -25 -18 18 -18 17 -10 38 8 22 11 20
29 -13z m4729 2 c-9 -35 -92 -231 -127 -298 -48 -91 -28 -21 37 130 35 83 67
160 70 173 10 32 28 27 20 -5z m-6514 -26 c0 -5 -7 -4 -15 3 -8 7 -15 20 -15
29 1 13 3 13 15 -3 8 -11 15 -24 15 -29z m78 18 c9 -20 9 -25 -2 -25 -13 0
-26 20 -26 41 0 18 17 8 28 -16z m742 -18 c0 -29 -1 -30 -16 -15 -10 10 -14
23 -9 37 9 30 25 16 25 -22z m475 14 c11 -22 12 -30 3 -33 -19 -7 -35 14 -30
39 6 30 8 29 27 -6z m305 3 c0 -8 -4 -14 -10 -14 -5 0 -10 9 -10 21 0 11 5 17
10 14 6 -3 10 -13 10 -21z m2370 0 c0 -14 -4 -23 -10 -19 -5 3 -10 15 -10 26
0 10 5 19 10 19 6 0 10 -12 10 -26z m-4571 -66 c-16 -29 -26 -21 -32 24 -8 57
2 68 24 27 12 -24 14 -39 8 -51z m-4794 -18 c8 -41 25 -103 36 -138 12 -35 19
-66 16 -69 -13 -13 -65 150 -82 257 -12 75 12 34 30 -50z m4879 64 c9 -22 8
-24 -9 -24 -8 0 -15 9 -15 20 0 24 15 27 24 4z m430 1 c7 -19 -10 -65 -24 -65
-11 0 -13 24 -4 58 7 25 19 29 28 7z m1100 0 c6 -18 -2 -45 -15 -45 -5 0 -9
14 -9 30 0 32 14 40 24 15z m-4227 -17 c5 -7 8 -45 7 -85 -1 -60 -7 -80 -34
-127 -17 -31 -35 -56 -39 -56 -15 0 -11 190 4 227 21 50 44 65 62 41z m-147
-3 c0 -10 -83 -115 -88 -110 -8 8 61 115 75 115 7 0 13 -2 13 -5z m7480 -71
c0 -47 -4 -73 -10 -69 -5 3 -10 37 -10 76 0 39 4 69 10 69 6 0 10 -32 10 -76z
m-2080 1 c0 -39 -4 -65 -11 -65 -9 0 -12 105 -2 123 10 17 13 3 13 -58z
m-3107 34 c5 -9 7 -28 3 -42 -6 -25 -11 -27 -54 -27 -26 0 -53 5 -60 12 -16
16 -15 51 0 66 18 18 98 11 111 -9z m5269 -124 c3 -135 -1 -168 -16 -129 -10
26 -7 274 3 274 6 0 11 -62 13 -145z m-5123 -120 c-1 -274 -17 -354 -21 -107
-5 309 -4 362 10 362 10 0 12 -53 11 -255z m4845 174 c7 -88 1 -115 -20 -78
-14 25 -19 140 -7 152 15 16 21 2 27 -74z m400 66 c3 -8 1 -15 -4 -15 -6 0
-10 7 -10 15 0 8 2 15 4 15 2 0 6 -7 10 -15z m-5895 -19 c7 -8 11 -32 9 -53
-3 -38 -3 -38 -50 -41 -61 -4 -88 10 -88 47 0 16 6 33 13 39 28 23 100 28 116
8z m1327 -52 c-7 -19 -27 -8 -21 11 15 46 18 51 23 27 2 -13 1 -30 -2 -38z
m344 10 c0 -17 -20 -28 -30 -18 -5 5 -6 22 -3 38 6 27 7 28 19 11 8 -10 14
-24 14 -31z m1296 0 c-3 -8 -10 -14 -15 -14 -10 0 -9 9 6 48 6 16 6 16 10 -1
3 -10 2 -25 -1 -33z m-3241 -2 c-8 -21 -8 -255 1 -479 6 -167 5 -191 -9 -196
-9 -3 -18 1 -23 11 -4 9 -9 164 -12 345 -3 253 -2 331 8 342 16 19 44 0 35
-23z m1507 8 c3 -20 0 -30 -9 -30 -13 0 -18 41 -6 53 10 10 10 9 15 -23z m328
5 c0 -14 -4 -25 -10 -25 -11 0 -14 33 -3 43 11 11 13 8 13 -18z m203 -5 c6
-22 -10 -37 -24 -23 -10 10 0 55 11 48 4 -3 10 -14 13 -25z m632 -27 c-4 -11
-9 -13 -16 -6 -6 6 -6 19 2 39 12 28 13 28 17 6 2 -13 1 -31 -3 -39z m3155 36
c0 -11 -4 -17 -10 -14 -5 3 -10 13 -10 21 0 8 5 14 10 14 6 0 10 -9 10 -21z
m-6004 -118 c1 -86 -2 -121 -10 -118 -13 4 -30 188 -21 225 3 13 11 22 18 19
8 -3 12 -40 13 -126z m3047 86 c-7 -11 -23 12 -23 33 1 12 4 11 15 -4 8 -10
12 -23 8 -29z m-512 -10 c-8 -8 -11 -5 -11 9 0 27 14 41 18 19 2 -9 -1 -22 -7
-28z m1292 29 c3 -8 -1 -17 -9 -20 -9 -4 -14 1 -14 14 0 23 15 27 23 6z
m-3273 -92 c0 -61 -4 -93 -10 -89 -11 7 -14 168 -3 178 12 13 13 7 13 -89z
m1044 64 c-9 -14 -23 2 -17 18 4 12 8 13 14 3 4 -7 5 -17 3 -21z m1626 17 c0
-8 -4 -15 -10 -15 -5 0 -10 7 -10 15 0 8 5 15 10 15 6 0 10 -7 10 -15z m495 5
c3 -5 1 -10 -4 -10 -6 0 -11 5 -11 10 0 6 2 10 4 10 3 0 8 -4 11 -10z m-4120
-140 c3 -74 10 -173 15 -220 15 -129 13 -323 -2 -318 -9 3 -15 49 -19 159 -4
85 -10 237 -14 338 -6 139 -5 183 3 180 8 -3 14 -49 17 -139z m1904 111 c-15
-5 -22 6 -14 19 6 9 10 9 16 -1 5 -8 4 -15 -2 -18z m5225 -44 c21 -63 33 -177
19 -177 -8 0 -56 60 -87 108 -7 12 0 52 20 119 7 26 32 0 48 -50z m-233 -48
l47 -58 1 -248 c1 -139 -2 -243 -7 -238 -11 13 -37 80 -51 130 -13 49 -51 337
-51 387 0 20 -5 49 -10 64 -6 15 -8 35 -4 43 5 14 7 14 17 -3 7 -10 33 -45 58
-77z m-7978 16 c-41 -59 -67 -76 -36 -22 40 67 48 77 61 77 8 0 -2 -22 -25
-55z m417 -56 c0 -84 -3 -110 -12 -107 -20 7 -33 151 -18 188 7 17 16 30 21
30 5 0 9 -50 9 -111z m530 85 c0 -8 -4 -14 -10 -14 -5 0 -10 9 -10 21 0 11 5
17 10 14 6 -3 10 -13 10 -21z m1790 -24 c0 -22 -4 -40 -10 -40 -5 0 -10 18
-10 40 0 22 5 40 10 40 6 0 10 -18 10 -40z m-537 -455 c2 -74 -1 -90 -13 -90
-13 0 -15 38 -18 275 -1 151 1 282 5 290 7 14 23 -276 26 -475z m3248 459 c7
-8 7 -14 -1 -19 -5 -3 -175 -5 -378 -4 -202 2 -413 -1 -469 -5 -71 -6 -103 -5
-103 2 0 6 6 14 13 19 6 4 152 10 322 13 542 9 604 8 616 -6z m2049 -19 c0
-19 -4 -35 -10 -35 -5 0 -10 16 -10 35 0 19 5 35 10 35 6 0 10 -16 10 -35z
m-6161 11 c8 -9 11 -60 9 -157 l-3 -144 -50 3 c-27 2 -54 8 -60 13 -14 14 -17
269 -4 286 15 17 93 17 108 -1z m3039 0 c32 -20 -17 -27 -230 -33 -240 -7
-269 -4 -247 23 11 14 28 16 94 12 44 -3 112 -2 150 1 100 9 218 7 233 -3z
m1188 -199 c6 -119 7 -209 2 -220 -12 -24 -33 -16 -32 11 0 12 1 113 2 224 1
111 5 198 10 194 4 -4 12 -98 18 -209z m-1770 192 c3 -6 2 -14 -2 -19 -12 -11
-945 -22 -962 -11 -34 21 50 28 348 30 173 1 316 4 319 6 10 11 290 5 297 -6z
m-3246 -84 c0 -50 -4 -85 -10 -85 -11 0 -14 152 -3 163 12 13 13 7 13 -78z
m154 67 c-1 -7 -2 -28 -2 -47 -1 -19 -7 -35 -13 -35 -6 0 -9 20 -7 50 2 28 7
49 13 47 6 -2 10 -9 9 -15z m8562 -214 c205 -203 274 -281 261 -295 -4 -3
-115 101 -247 233 -132 131 -247 245 -255 252 -8 7 -15 20 -15 28 0 28 39 -5
256 -218z m-1422 191 c12 -60 29 -295 23 -312 -9 -24 -26 -21 -31 6 -11 50
-17 337 -8 337 5 0 12 -14 16 -31z m-7726 8 c6 -7 12 -55 13 -107 3 -92 2 -97
-32 -155 -66 -113 -74 -125 -86 -125 -15 0 -16 20 -3 157 10 118 22 165 50
211 21 34 41 40 58 19z m-220 -101 c-25 -27 -38 -43 -53 -68 -5 -9 -41 -64
-80 -122 -105 -158 -158 -243 -206 -328 -37 -67 -59 -94 -59 -73 0 8 32 69 39
75 3 3 21 34 38 70 55 110 108 194 189 302 43 57 83 108 89 115 5 6 21 26 35
43 13 18 26 28 28 22 2 -7 -7 -23 -20 -36z m4565 29 c-2 -6 -72 -11 -180 -13
-111 -1 -173 2 -168 7 19 19 352 25 348 6z m-4137 -3 c-3 -4 0 -28 6 -53 10
-42 12 -372 3 -434 -6 -39 -56 -145 -68 -145 -6 0 -7 41 -3 108 8 132 9 393 1
415 -7 18 40 117 56 117 5 0 8 -4 5 -8z m3753 -6 c9 -10 0 -17 -48 -33 -57
-20 -59 -20 -75 -2 -10 13 -29 19 -55 19 -38 0 -57 10 -44 24 3 3 52 6 108 6
74 0 106 -4 114 -14z m506 5 c3 -6 38 -28 78 -51 39 -22 95 -55 122 -72 28
-17 119 -73 203 -125 142 -88 172 -113 138 -113 -15 0 -181 93 -251 140 -22
15 -92 59 -155 98 -119 73 -189 132 -157 132 8 0 18 -4 22 -9z m5270 -11 c-3
-5 -11 -10 -16 -10 -6 0 -7 5 -4 10 3 6 11 10 16 10 6 0 7 -4 4 -10z m-2135
-106 c0 -67 -4 -103 -10 -99 -6 3 -10 50 -10 106 0 59 4 99 10 99 6 0 10 -42
10 -106z m-1620 25 c0 -33 -4 -59 -10 -59 -6 0 -10 29 -10 66 0 41 4 63 10 59
6 -3 10 -33 10 -66z m-5155 51 c3 -5 1 -10 -4 -10 -6 0 -11 5 -11 10 0 6 2 10
4 10 3 0 8 -4 11 -10z m2766 -14 c-6 -7 -111 -81 -234 -162 -122 -82 -232
-158 -245 -169 -28 -24 -82 -38 -82 -21 1 11 11 18 200 135 58 35 159 102 225
147 113 78 164 104 136 70z m3469 -7 c0 -11 -4 -17 -10 -14 -5 3 -10 13 -10
21 0 8 5 14 10 14 6 0 10 -9 10 -21z m1223 -22 c7 -12 19 -42 25 -67 32 -130
43 -190 37 -200 -4 -6 -29 23 -58 70 -29 45 -60 95 -70 110 -18 28 -18 30 2
74 21 49 38 53 64 13z m-4065 1 c19 -19 17 -484 -2 -491 -31 -12 -336 -20
-349 -9 -9 8 -14 40 -16 94 -1 46 -4 97 -6 113 -8 64 -7 237 1 245 9 8 73 25
158 40 27 5 51 12 54 15 11 11 148 5 160 -7z m-3918 -24 c0 -8 -4 -14 -10 -14
-5 0 -10 9 -10 21 0 11 5 17 10 14 6 -3 10 -13 10 -21z m290 -15 c0 -16 -4
-29 -10 -29 -5 0 -10 16 -10 36 0 21 4 33 10 29 6 -3 10 -19 10 -36z m3729 24
c5 -10 10 -107 10 -215 2 -173 0 -198 -13 -198 -13 0 -16 14 -17 73 -1 109 -8
247 -14 298 -5 44 -1 59 16 59 5 0 12 -8 18 -17z m-1699 -138 c0 -125 -2 -145
-16 -145 -13 0 -14 15 -8 118 6 115 10 165 13 170 8 16 11 -21 11 -143z m1161
75 c10 -97 10 -343 1 -357 -7 -10 -12 -10 -25 0 -14 10 -17 37 -17 212 0 110
-1 204 0 208 0 5 8 7 18 5 13 -2 18 -17 23 -68z m4287 0 c23 -32 28 -48 24
-73 -3 -17 -8 -151 -11 -297 l-6 -265 -29 60 -30 60 -2 270 c-1 149 0 273 3
278 9 15 22 6 51 -33z m-6138 -106 c0 -43 -4 -74 -10 -74 -6 0 -10 34 -10 81
0 51 4 78 10 74 6 -3 10 -40 10 -81z m-3051 49 c-40 -51 -59 -58 -32 -13 9 17
24 30 31 30 12 0 12 -3 1 -17z m1416 7 c3 -5 1 -10 -4 -10 -6 0 -11 5 -11 10
0 6 2 10 4 10 3 0 8 -4 11 -10z m305 -135 c0 -68 -4 -126 -9 -129 -14 -9 -16
12 -13 142 4 161 22 150 22 -13z m-551 -182 l-12 -278 -40 -72 c-23 -40 -47
-73 -54 -73 -9 0 -13 50 -17 213 -3 116 -6 228 -8 247 -2 28 9 53 51 120 30
47 60 96 68 108 8 13 17 22 20 19 2 -3 -1 -130 -8 -284z m1321 236 c0 -16 -4
-29 -10 -29 -5 0 -10 16 -10 36 0 21 4 33 10 29 6 -3 10 -19 10 -36z m4199 -8
c-15 -5 -22 6 -14 19 6 9 10 9 16 -1 5 -8 4 -15 -2 -18z m-6766 -22 c-10 -17
-30 -44 -46 -60 -15 -16 -27 -32 -27 -36 0 -13 -116 -187 -137 -205 -11 -10
-24 -14 -32 -9 -17 11 0 45 43 86 18 17 52 57 77 90 24 33 47 64 52 70 4 5 21
29 37 53 35 48 60 57 33 11z m961 -24 c10 -22 21 -59 24 -82 4 -37 -1 -49 -49
-122 -30 -45 -57 -81 -60 -81 -24 0 -26 220 -3 276 28 67 59 70 88 9z m536 0
c0 -8 -4 -15 -10 -15 -5 0 -10 7 -10 15 0 8 5 15 10 15 6 0 10 -7 10 -15z
m7967 -92 l58 -88 -2 -140 c-3 -228 -18 -484 -29 -495 -7 -7 -20 7 -42 43 -77
126 -73 104 -72 444 0 168 3 309 6 314 11 19 24 6 81 -78z m-557 68 c0 -11
-265 -23 -344 -15 -123 13 -67 22 139 22 113 1 205 -2 205 -7z m-735 -11 c4
-6 -8 -10 -29 -10 -20 0 -36 5 -36 10 0 6 13 10 29 10 17 0 33 -4 36 -10z
m-5595 -26 c0 -8 -4 -14 -10 -14 -5 0 -10 9 -10 21 0 11 5 17 10 14 6 -3 10
-13 10 -21z m5355 16 c4 -6 -30 -10 -94 -10 -61 0 -101 4 -101 10 0 6 38 10
94 10 53 0 98 -4 101 -10z m-1446 -14 c7 -8 15 -39 18 -69 4 -42 2 -55 -9 -60
-24 -9 -37 6 -42 48 -6 46 -27 65 -73 65 -31 0 -41 9 -26 23 13 14 120 7 132
-7z m977 2 c3 -3 -52 -9 -123 -12 -70 -3 -218 -10 -328 -16 -324 -16 -390 -13
-352 18 6 6 26 12 42 14 46 6 754 2 761 -4z m-7244 -16 c-8 -21 -51 -74 -70
-86 -22 -14 -13 20 18 62 31 43 66 59 52 24z m9496 -7 c35 -45 92 -305 66
-305 -5 0 -40 50 -77 110 l-68 110 16 55 c18 61 33 68 63 30z m529 -23 c10
-15 23 -33 30 -40 15 -15 17 -38 4 -46 -9 -6 -74 62 -92 95 -26 50 26 41 58
-9z m-8747 7 c0 -5 -7 -9 -15 -9 -15 0 -20 12 -9 23 8 8 24 -1 24 -14z m2619
8 c16 -20 3 -27 -49 -27 -57 0 -70 -12 -70 -66 0 -42 -13 -64 -25 -44 -11 18
-7 121 6 136 15 19 122 19 138 1z m8030 -6 c42 -27 -8 -31 -357 -31 -214 0
-352 4 -346 9 17 16 679 37 703 22z m-10509 -36 c0 -8 -4 -17 -10 -20 -6 -4
-10 5 -10 20 0 15 4 24 10 20 6 -3 10 -12 10 -20z m7405 -33 c19 -46 26 -72
20 -72 -6 0 -65 97 -65 108 0 29 27 8 45 -36z m-5255 -7 c7 -8 11 -18 8 -20
-3 -3 -70 -8 -149 -10 -79 -3 -238 -10 -354 -15 -190 -9 -563 -23 -985 -36
-393 -12 -533 -18 -737 -30 -53 -3 -75 8 -54 29 8 8 78 12 224 13 252 2 473
10 812 29 138 8 367 20 510 26 143 6 314 14 380 18 269 14 331 13 345 -4z
m2858 -2 c-1 -5 1 -18 5 -29 5 -14 1 -34 -11 -55 -20 -36 -45 -45 -50 -18 -4
21 35 109 48 109 5 0 9 -3 8 -7z m4040 -18 c7 -14 12 -53 12 -86 0 -33 5 -69
11 -80 5 -11 9 -39 7 -62 l-4 -42 -12 29 c-12 26 -21 84 -36 224 -5 47 5 55
22 17z m-9649 -342 l-1 -288 -55 -83 c-30 -45 -58 -80 -61 -78 -5 3 -7 481 -2
567 0 13 108 169 116 169 3 0 4 -129 3 -287z m5441 258 c0 -11 -208 -20 -540
-23 -262 -2 -308 1 -295 23 8 12 835 12 835 0z m-6230 -63 c1 -60 12 -191 25
-288 5 -36 2 -52 -16 -80 -19 -31 -22 -32 -34 -17 -7 10 -15 68 -19 139 -4 68
-9 151 -12 184 -6 67 13 124 41 124 12 0 15 -14 15 -62z m509 40 c5 -13 14
-44 20 -70 l11 -47 -63 -95 c-34 -52 -65 -95 -69 -96 -5 0 -8 48 -8 108 0 82
5 116 19 147 33 73 73 96 90 53z m3084 -15 c15 -20 25 -38 22 -41 -8 -8 -75
48 -75 64 0 25 24 14 53 -23z m977 7 c0 -12 -139 -19 -480 -25 -179 -3 -342
-8 -363 -11 -53 -6 -45 18 9 28 41 8 787 26 817 19 9 -2 17 -7 17 -11z m705
-1 c0 -11 -22 -14 -105 -16 -58 0 -181 -6 -275 -11 -165 -10 -205 -6 -189 19
3 5 67 10 142 10 75 1 187 5 247 8 147 9 180 8 180 -10z m-6530 -19 c4 -6 -7
-10 -25 -10 -18 0 -29 4 -25 10 3 6 15 10 25 10 10 0 22 -4 25 -10z m-160 -10
c4 -6 -18 -10 -60 -10 -42 0 -64 4 -60 10 3 6 30 10 60 10 30 0 57 -4 60 -10z
m-361 -9 c7 -10 -66 -21 -139 -21 -28 0 -77 -5 -108 -11 -62 -11 -85 -6 -67
16 7 9 46 13 127 14 65 1 119 4 122 6 8 9 60 5 65 -4z m191 -1 c4 -6 -20 -10
-65 -10 -45 0 -69 4 -65 10 3 6 33 10 65 10 32 0 62 -4 65 -10z m11583 -168
c2 -103 -1 -172 -6 -172 -17 0 -22 29 -29 175 -6 146 -2 180 20 173 9 -4 13
-50 15 -176z m-10542 143 c9 -14 14 -31 11 -39 -3 -7 1 -159 8 -337 7 -178 12
-326 9 -330 -2 -4 0 -55 6 -115 13 -158 30 -459 35 -609 5 -163 20 -339 31
-356 4 -7 7 -29 6 -49 -1 -19 2 -42 7 -49 6 -9 6 -22 0 -33 -6 -12 -6 -25 1
-38 7 -13 5 -77 -6 -217 -9 -109 -19 -256 -23 -328 -5 -113 -8 -130 -23 -133
-16 -3 -18 8 -19 110 -1 62 -3 131 -5 153 -23 332 -33 576 -39 960 -3 204 -8
408 -11 455 -3 47 -11 261 -18 475 -8 215 -18 401 -23 415 -12 31 2 90 22 90
8 0 22 -11 31 -25z m10807 -45 c20 -23 37 -47 37 -54 0 -29 -16 -24 -56 19
-47 48 -67 79 -57 88 9 10 36 -8 76 -53z m-9085 25 c-6 -14 -15 -25 -20 -25
-9 0 -4 14 15 38 15 19 18 14 5 -13z m8238 -7 c9 -18 37 -61 61 -96 l44 -63
-10 -132 c-6 -72 -11 -222 -11 -334 0 -112 -3 -203 -7 -203 -9 0 -36 41 -75
110 -76 134 -71 117 -69 230 1 58 6 155 11 215 5 61 10 151 10 201 0 50 3 94
7 97 13 13 23 7 39 -25z m297 -52 c33 -43 75 -173 86 -271 5 -44 8 -81 6 -83
-2 -2 -20 22 -40 54 -21 33 -46 71 -56 86 -10 15 -19 30 -19 33 0 3 -15 28
-34 56 -31 46 -33 54 -24 91 19 85 37 92 81 34z m-8578 -20 c-27 -54 -77 -125
-88 -126 -9 0 0 19 51 108 41 71 72 86 37 18z m9328 -178 c10 -219 9 -294 -3
-282 -14 14 -27 434 -13 434 6 0 13 -61 16 -152z m-9887 55 c-3 -21 -8 -154
-12 -296 l-6 -257 -52 -80 c-52 -80 -76 -99 -76 -57 -1 155 -15 446 -22 459
-10 21 3 50 64 133 23 33 54 77 68 97 32 48 43 48 36 1z m-911 -4 c0 -35 -60
-98 -77 -81 -11 11 1 39 36 84 28 36 41 35 41 -3z m618 -16 c15 -27 16 -38 6
-76 -8 -33 -8 -50 0 -65 9 -17 7 -27 -11 -54 -13 -19 -34 -57 -47 -86 -38 -82
-51 -70 -51 51 0 104 14 176 44 235 20 39 34 37 59 -5z m9959 -10 c27 -28 27
-30 37 -233 6 -112 7 -208 3 -212 -10 -10 -64 47 -84 87 -11 22 -17 79 -21
211 -4 99 -4 184 -1 187 9 9 34 -6 66 -40z m-9202 7 c0 -5 -5 -10 -11 -10 -5
0 -7 5 -4 10 3 6 8 10 11 10 2 0 4 -4 4 -10z m-16 -35 c-6 -16 -24 -21 -24 -7
0 11 11 22 21 22 5 0 6 -7 3 -15z m-26 -45 c-7 -11 -16 -20 -21 -20 -4 0 -3 9
3 20 6 11 15 20 20 20 6 0 5 -9 -2 -20z m8707 -140 l76 -115 -5 -110 c-3 -60
-8 -210 -12 -332 -4 -123 -10 -223 -14 -223 -4 0 -41 51 -81 113 l-74 112 -6
110 c-6 118 6 539 17 556 11 19 23 5 99 -111z m-8735 100 c0 -5 -5 -10 -11
-10 -5 0 -7 5 -4 10 3 6 8 10 11 10 2 0 4 -4 4 -10z m10780 -40 c12 -7 12 -13
4 -27 -9 -14 -27 -19 -93 -21 -51 -2 -81 1 -82 8 -1 5 -2 16 -3 23 -1 6 -1 15
1 20 6 10 155 8 173 -3z m-10812 -20 c-7 -11 -16 -20 -21 -20 -4 0 -3 9 3 20
6 11 15 20 20 20 6 0 5 -9 -2 -20z m10050 8 c8 -8 9 -15 1 -25 -14 -16 -139
-18 -139 -3 0 6 0 13 0 18 0 6 38 13 111 20 8 1 20 -3 27 -10z m-11284 -45 c6
-21 25 -193 30 -273 2 -39 -2 -62 -16 -85 -23 -40 -54 -69 -61 -58 -12 19 -27
171 -27 266 0 84 4 108 20 135 22 35 46 42 54 15z m1206 -3 c0 -5 -5 -10 -11
-10 -5 0 -7 5 -4 10 3 6 8 10 11 10 2 0 4 -4 4 -10z m9094 -45 c28 -43 46
-115 53 -210 3 -49 10 -98 14 -107 5 -10 5 -19 0 -22 -5 -4 -25 22 -45 56 -19
35 -55 95 -80 133 -49 74 -49 74 -15 153 16 37 21 41 37 33 11 -6 27 -22 36
-36z m-9126 -15 c-7 -11 -16 -20 -21 -20 -4 0 -3 9 3 20 6 11 15 20 20 20 6 0
5 -9 -2 -20z m-24 -42 c-4 -7 -40 -65 -80 -129 -40 -64 -104 -172 -142 -240
-38 -68 -94 -167 -124 -219 -63 -109 -177 -312 -268 -480 -145 -266 -238 -431
-254 -450 -7 -8 -43 -68 -81 -133 -38 -64 -73 -117 -78 -117 -8 0 282 575 373
740 30 52 81 147 114 210 34 63 84 149 112 190 48 71 72 108 136 211 15 24 54
85 87 134 33 50 79 122 103 160 54 89 88 135 100 135 5 0 6 -6 2 -12z m-516
-276 l4 -277 -51 -114 c-51 -116 -66 -140 -77 -129 -3 4 4 108 15 232 24 256
26 323 10 363 -9 24 -5 39 32 116 24 48 48 87 54 87 6 0 11 -93 13 -278z
m-262 203 c9 -14 14 -31 11 -38 -3 -7 1 -24 8 -36 11 -21 5 -38 -61 -165 -40
-77 -77 -142 -83 -144 -14 -5 -17 39 -10 143 13 194 83 319 135 240z m-1036 5
c25 -15 0 -27 -72 -33 -54 -5 -67 -3 -72 9 -3 9 -4 20 0 25 7 12 125 11 144
-1z m-679 -32 c14 -22 -2 -28 -81 -28 -58 0 -83 4 -94 16 -9 8 -13 20 -10 25
9 15 175 3 185 -13z m12116 -47 c0 -11 -5 -17 -9 -15 -11 7 -10 34 1 34 6 0 9
-9 8 -19z m-451 -411 c1 -80 4 -243 9 -362 4 -140 3 -218 -3 -218 -5 0 -47 62
-93 138 l-84 137 -1 110 c-2 169 17 528 28 543 8 9 27 -14 77 -95 l66 -108 1
-145z m242 225 c17 -14 39 -44 50 -68 24 -50 45 -215 40 -307 l-3 -65 -34 64
c-18 36 -43 81 -56 100 -129 204 -133 216 -100 294 15 37 16 37 44 23 16 -9
42 -27 59 -41z m-10112 -7 c-11 -63 -36 -374 -36 -460 0 -52 -6 -101 -14 -120
-7 -18 -24 -60 -36 -93 -13 -33 -34 -82 -47 -109 -12 -28 -23 -56 -23 -63 0
-7 -7 -13 -16 -13 -14 0 -16 7 -10 43 4 23 9 150 12 282 l5 240 79 162 c44 90
83 163 86 163 3 0 3 -15 0 -32z m9325 -81 c12 -23 25 -44 29 -47 10 -7 120
-179 225 -351 50 -82 144 -233 209 -336 158 -249 237 -374 289 -456 23 -37 66
-104 95 -149 29 -44 51 -87 48 -94 -3 -8 -19 -14 -35 -14 -27 0 -34 9 -92 113
-34 61 -99 173 -144 247 -45 74 -112 191 -150 260 -38 69 -74 132 -81 140 -6
8 -38 60 -69 115 -32 55 -73 125 -91 155 -18 30 -52 89 -75 130 -24 41 -62
105 -86 142 -24 36 -43 71 -43 77 0 6 -3 11 -7 11 -8 0 -63 92 -63 105 0 16
22 -10 41 -48z m-9643 -115 l43 -82 -68 -128 c-37 -70 -77 -146 -88 -169 -25
-52 -51 -54 -49 -3 1 19 -5 85 -13 145 -8 61 -12 131 -9 157 6 59 47 141 78
156 46 22 61 11 106 -76z m10341 -135 c35 -61 84 -147 109 -190 l45 -78 -12
-53 c-12 -56 -7 -166 25 -480 13 -132 13 -169 0 -155 -5 5 -95 142 -158 242
-71 109 -65 72 -83 527 -3 69 -7 161 -10 206 -4 74 -1 94 14 94 3 0 35 -51 70
-113z m901 1 c30 -18 78 -55 106 -83 44 -43 53 -58 64 -109 8 -42 9 -61 1 -69
-7 -7 -110 -12 -294 -15 -337 -5 -319 -13 -257 117 57 121 117 170 220 182 96
11 104 10 160 -23z m690 -156 c0 -21 -30 -32 -88 -32 -35 0 -72 -5 -82 -10
-25 -14 -46 19 -27 43 21 28 197 27 197 -1z m-11857 -24 c-2 -24 -8 -95 -14
-158 -5 -63 -12 -178 -16 -255 l-5 -140 -81 -172 c-44 -95 -85 -173 -91 -173
-14 0 -10 68 21 405 3 33 0 79 -7 103 l-11 43 98 195 c54 107 100 194 103 194
3 0 4 -19 3 -42z m-803 -98 c30 -15 67 -39 81 -52 51 -48 130 -210 108 -224
-14 -8 -520 -8 -559 1 -36 8 -38 24 -10 97 35 92 82 145 163 184 85 41 126 40
217 -6z m11371 -386 c3 -214 9 -419 14 -455 5 -45 4 -69 -4 -73 -7 -5 -11 2
-11 18 0 14 -7 51 -15 83 -9 34 -15 102 -15 168 0 60 -6 144 -14 185 -8 41
-17 142 -21 224 -7 142 -6 151 16 198 12 26 27 47 33 45 8 -2 13 -131 17 -393z
m775 326 l34 -12 0 -414 c0 -323 -3 -416 -12 -419 -7 -2 -147 -5 -310 -7 -257
-3 -299 -1 -305 12 -4 8 -9 193 -11 411 -3 359 -2 397 13 409 21 17 111 24
364 28 123 2 206 -1 227 -8z m487 -11 l37 -10 1 -142 c2 -174 1 -217 -5 -234
-8 -21 -182 -18 -190 3 -12 31 -7 369 6 382 15 15 100 16 151 1z m-13340 -210
c33 -27 13 -37 -85 -41 -81 -3 -88 -1 -99 19 -19 36 -3 44 83 42 59 -1 85 -6
101 -20z m913 -71 c7 -5 15 -29 19 -54 3 -25 9 -56 11 -67 10 -45 20 -299 20
-472 l-1 -180 -145 -7 c-80 -4 -217 -11 -305 -17 -88 -5 -163 -7 -167 -3 -26
28 -55 311 -57 562 -1 80 -4 153 -7 163 -8 26 14 75 37 82 10 4 69 4 131 1 62
-2 174 -1 248 3 139 8 196 5 216 -11z m-910 -122 c7 -7 14 -76 17 -183 6 -163
5 -173 -13 -183 -20 -11 -157 -3 -165 10 -2 4 -7 74 -10 155 -4 82 -9 153 -11
157 -6 9 15 50 30 60 16 11 139 -2 152 -16z m1354 -466 c0 -5 -8 -10 -17 -10
-15 0 -16 2 -3 10 19 12 20 12 20 0z m-30 -45 c-5 -14 -15 -31 -20 -38 -6 -6
-20 -27 -30 -44 -32 -53 -44 -38 -14 17 15 28 31 50 35 50 4 0 11 9 14 20 3
11 10 20 15 20 6 0 6 -11 0 -25z m10435 4 c5 -6 -9 -9 -39 -8 -24 2 -43 6 -40
11 7 12 72 10 79 -3z m1824 2 c24 -15 -2 -19 -169 -25 -91 -4 -221 -8 -290
-11 -470 -17 -563 -18 -558 -4 5 15 0 14 728 37 146 5 267 10 270 10 3 1 11
-2 19 -7z m-2336 -12 c118 -4 72 -19 -58 -19 -69 0 -271 -4 -448 -10 -416 -13
-1009 -29 -1307 -36 -129 -4 -336 -9 -460 -13 -124 -4 -229 -4 -234 1 -27 22
66 30 394 35 371 4 475 7 900 23 151 5 455 12 674 15 220 3 401 7 403 9 2 2
18 2 36 0 18 -1 62 -4 100 -5z m342 1 c4 -6 -26 -10 -83 -10 -49 0 -110 -3
-136 -6 -30 -5 -46 -3 -46 4 0 13 39 18 162 20 56 1 99 -2 103 -8z m932 -26
c4 -11 -172 -24 -340 -24 -67 0 -88 3 -85 13 4 9 56 13 199 17 236 7 222 7
226 -6z m-3959 -29 c46 -16 -34 -23 -305 -30 -170 -4 -339 -9 -378 -11 -64 -3
-677 -18 -1180 -29 -115 -2 -280 -7 -365 -10 -85 -4 -364 -10 -620 -15 -256
-5 -607 -13 -781 -16 -325 -7 -349 -5 -319 31 10 12 60 14 288 13 153 -1 286
1 297 5 11 4 164 9 340 11 973 14 1136 17 1200 21 168 9 400 15 825 21 250 4
550 9 665 13 204 6 306 5 333 -4z m-4233 -78 c110 -2 130 -4 133 -18 2 -14
-19 -17 -170 -23 -453 -18 -1851 -27 -2663 -18 -267 3 -303 9 -271 40 13 13
41 14 203 5 103 -5 361 -8 573 -6 468 5 1324 12 1402 12 31 0 59 4 62 9 3 5
130 7 303 5 164 -2 356 -5 428 -6z"/>
</g>
</svg>
